<svg xmlns="http://www.w3.org/2000/svg">
    <symbol id="logo" viewBox="0 0 294 29" fill="none">
        <path d="M17.3723 1.52632H22.6822L14.5178 22.8947H8.19505L0 1.52632H5.3099L11.295 17.6747L17.3723 1.52632Z" fill="white"/>
        <path d="M31.9416 16.7895L28.9951 17.1558C27.9925 17.2779 27.4911 17.634 27.4911 18.2242C27.4911 18.9161 28.0232 19.2621 29.0872 19.2621C29.9261 19.2621 30.6116 19.0586 31.1436 18.6516C31.6756 18.2242 31.9416 17.6849 31.9416 17.0337H33.0159C33.0159 18.8246 32.4941 20.3102 31.4506 21.4905C30.4275 22.6505 29.1383 23.2305 27.5832 23.2305C26.2123 23.2305 25.0869 22.8032 24.207 21.9484C23.3271 21.0937 22.8872 20.0049 22.8872 18.6821C22.8872 17.3389 23.3271 16.24 24.207 15.3853C25.1073 14.5102 26.3453 13.9811 27.9208 13.7979L31.9416 13.2789V13.1263C31.9416 12.6582 31.7063 12.2614 31.2357 11.9358C30.7855 11.5898 30.2331 11.4168 29.5783 11.4168C29.0053 11.4168 28.504 11.5695 28.0743 11.8747C27.6446 12.1596 27.3684 12.5463 27.2456 13.0347L22.7644 11.6C23.1941 10.3179 24.0228 9.28 25.2506 8.48632C26.4783 7.69263 27.8799 7.29579 29.4555 7.29579C31.3789 7.29579 33.0364 7.86561 34.4278 9.00526C35.8397 10.1246 36.5456 11.4474 36.5456 12.9737V22.8947H31.9416V16.7895Z" fill="white"/>
        <path d="M56.7208 22.8947H52.1168V0H56.7208V22.8947ZM50.9812 18.0105C51.7383 17.2779 52.1168 16.3519 52.1168 15.2326C52.1168 14.1133 51.7383 13.1874 50.9812 12.4547C50.2445 11.7221 49.3237 11.3558 48.2188 11.3558C47.1138 11.3558 46.1828 11.7221 45.4257 12.4547C44.6891 13.1874 44.3208 14.1133 44.3208 15.2326C44.3208 16.3519 44.6891 17.2779 45.4257 18.0105C46.1828 18.7432 47.1138 19.1095 48.2188 19.1095C49.3237 19.1095 50.2445 18.7432 50.9812 18.0105ZM51.6871 9.37158C52.9967 10.9182 53.6515 12.8719 53.6515 15.2326C53.6515 17.5933 52.9967 19.5572 51.6871 21.1242C50.3775 22.6709 48.7406 23.4442 46.7762 23.4442C44.7914 23.4442 43.1135 22.6607 41.7426 21.0937C40.3921 19.5267 39.7168 17.573 39.7168 15.2326C39.7168 12.8923 40.3921 10.9386 41.7426 9.37158C43.1135 7.80456 44.7914 7.02105 46.7762 7.02105C48.7406 7.02105 50.3775 7.80456 51.6871 9.37158Z" fill="white"/>
        <path d="M71.8738 7.63158H76.754L68.1906 29H63.3104L65.6738 22.5284L59.7807 7.63158H64.6609L68.2827 17.6442L71.8738 7.63158Z" fill="white"/>
        <path d="M97.8209 22.8947V14.0421C97.8209 13.2891 97.6265 12.6989 97.2378 12.2716C96.849 11.8442 96.3374 11.6305 95.7031 11.6305C95.0892 11.6305 94.5572 11.8747 94.1071 12.3632C93.6774 12.8312 93.4625 13.3909 93.4625 14.0421H91.7744C91.7744 12.1291 92.2962 10.5316 93.3397 9.24947C94.3833 7.94702 95.6826 7.29579 97.2378 7.29579C98.752 7.29579 100 7.80456 100.982 8.82211C101.964 9.83965 102.456 11.2235 102.456 12.9737V22.8947H97.8209ZM79.8348 22.8947V7.63158H84.4388V22.8947H79.8348ZM88.8279 22.8947V14.0421C88.8279 13.2891 88.6232 12.6989 88.214 12.2716C87.8252 11.8442 87.3137 11.6305 86.6793 11.6305C86.0655 11.6305 85.5335 11.8747 85.0833 12.3632C84.6536 12.8312 84.4388 13.3909 84.4388 14.0421H82.7506C82.7506 12.1291 83.2724 10.5316 84.316 9.24947C85.3596 7.94702 86.6691 7.29579 88.2447 7.29579C89.7384 7.29579 90.9764 7.80456 91.9585 8.82211C92.9407 9.83965 93.4318 11.2235 93.4318 12.9737V22.8947H88.8279Z" fill="white"/>
        <path d="M123.768 22.8947H115.113V1.52632H123.768C125.2 1.52632 126.551 1.79088 127.82 2.32C129.109 2.84912 130.224 3.58176 131.165 4.51789C132.106 5.43368 132.853 6.56316 133.406 7.90632C133.958 9.22912 134.234 10.6537 134.234 12.18C134.234 13.7267 133.958 15.1716 133.406 16.5147C132.853 17.8375 132.106 18.967 131.165 19.9032C130.224 20.8393 129.109 21.5719 127.82 22.1011C126.551 22.6302 125.2 22.8947 123.768 22.8947ZM123.461 5.98316H119.717V18.4379H123.461C125.18 18.4379 126.633 17.8579 127.82 16.6979C129.006 15.5175 129.6 14.0116 129.6 12.18C129.6 10.3688 129.006 8.88316 127.82 7.72316C126.633 6.56316 125.18 5.98316 123.461 5.98316Z" fill="white"/>
        <path d="M142.523 12.4547C141.766 13.167 141.388 14.093 141.388 15.2326C141.388 16.3723 141.766 17.3084 142.523 18.0411C143.28 18.7533 144.201 19.1095 145.286 19.1095C146.37 19.1095 147.291 18.7533 148.048 18.0411C148.805 17.3084 149.184 16.3723 149.184 15.2326C149.184 14.093 148.805 13.167 148.048 12.4547C147.291 11.7221 146.37 11.3558 145.286 11.3558C144.201 11.3558 143.28 11.7221 142.523 12.4547ZM139.239 21.1242C137.602 19.5775 136.784 17.6137 136.784 15.2326C136.784 12.8516 137.602 10.8877 139.239 9.34105C140.876 7.79439 142.892 7.02105 145.286 7.02105C147.68 7.02105 149.695 7.79439 151.332 9.34105C152.969 10.8877 153.788 12.8516 153.788 15.2326C153.788 17.6137 152.969 19.5775 151.332 21.1242C149.695 22.6709 147.68 23.4442 145.286 23.4442C142.892 23.4442 140.876 22.6709 139.239 21.1242Z" fill="white"/>
        <path d="M156.985 22.8947V7.63158H161.589V22.8947H156.985ZM165.701 11.9663C164.556 11.9663 163.584 12.2818 162.786 12.9126C161.988 13.5232 161.589 14.2558 161.589 15.1105H159.9C159.9 12.8719 160.453 11.0302 161.558 9.58526C162.663 8.12 164.034 7.38737 165.671 7.38737H166.53V11.9663H165.701Z" fill="white"/>
        <path d="M173.964 12.4547C173.207 13.167 172.829 14.093 172.829 15.2326C172.829 16.3723 173.207 17.3084 173.964 18.0411C174.722 18.7533 175.642 19.1095 176.727 19.1095C177.811 19.1095 178.732 18.7533 179.489 18.0411C180.246 17.3084 180.625 16.3723 180.625 15.2326C180.625 14.093 180.246 13.167 179.489 12.4547C178.732 11.7221 177.811 11.3558 176.727 11.3558C175.642 11.3558 174.722 11.7221 173.964 12.4547ZM170.68 21.1242C169.043 19.5775 168.225 17.6137 168.225 15.2326C168.225 12.8516 169.043 10.8877 170.68 9.34105C172.317 7.79439 174.333 7.02105 176.727 7.02105C179.121 7.02105 181.136 7.79439 182.773 9.34105C184.41 10.8877 185.229 12.8516 185.229 15.2326C185.229 17.6137 184.41 19.5775 182.773 21.1242C181.136 22.6709 179.121 23.4442 176.727 23.4442C174.333 23.4442 172.317 22.6709 170.68 21.1242Z" fill="white"/>
        <path d="M194.104 17.2779C190.073 16.7691 188.058 15.1309 188.058 12.3632C188.058 10.8572 188.61 9.62597 189.715 8.66947C190.82 7.71298 192.232 7.23474 193.951 7.23474C195.424 7.23474 196.774 7.61123 198.002 8.36421C199.23 9.09684 200.11 10.0737 200.642 11.2947L196.161 12.6074C195.976 12.1596 195.69 11.8035 195.301 11.5389C194.912 11.2744 194.493 11.1421 194.043 11.1421C193.633 11.1421 193.296 11.2439 193.03 11.4474C192.784 11.6305 192.662 11.8747 192.662 12.18C192.662 12.7905 193.439 13.1975 194.994 13.4011C196.877 13.6249 198.329 14.1642 199.353 15.0189C200.396 15.8737 200.918 16.9726 200.918 18.3158C200.918 19.7404 200.345 20.9207 199.199 21.8568C198.053 22.7726 196.59 23.2305 194.81 23.2305C193.234 23.2305 191.812 22.8642 190.544 22.1316C189.275 21.3989 188.364 20.4119 187.812 19.1705L192.262 17.8274C192.488 18.3768 192.815 18.8042 193.245 19.1095C193.695 19.4147 194.186 19.5674 194.718 19.5674C195.168 19.5674 195.547 19.4656 195.854 19.2621C196.161 19.0382 196.314 18.7737 196.314 18.4684C196.314 18.1632 196.14 17.9189 195.792 17.7358C195.444 17.5526 194.882 17.4 194.104 17.2779Z" fill="white"/>
        <path d="M204.087 22.8947V0H208.69V22.8947H204.087ZM214.031 22.8947V14.4084C214.031 13.5333 213.786 12.8516 213.294 12.3632C212.824 11.8747 212.2 11.6305 211.422 11.6305C210.686 11.6305 210.041 11.9053 209.488 12.4547C208.956 12.9839 208.69 13.6351 208.69 14.4084H207.002C207.002 12.3937 207.565 10.7046 208.69 9.34105C209.836 7.97754 211.258 7.29579 212.957 7.29579C214.614 7.29579 215.975 7.83509 217.039 8.91368C218.103 9.99228 218.635 11.4677 218.635 13.34V22.8947H214.031Z" fill="white"/>
        <path d="M233.372 13.3705C233.167 12.7193 232.758 12.2004 232.144 11.8137C231.53 11.427 230.804 11.2337 229.965 11.2337C229.167 11.2337 228.481 11.427 227.908 11.8137C227.335 12.18 226.936 12.6989 226.711 13.3705H233.372ZM226.711 17.0642C226.936 17.7561 227.345 18.2954 227.939 18.6821C228.532 19.0484 229.228 19.2316 230.026 19.2316C230.66 19.2316 231.244 19.1095 231.776 18.8653C232.328 18.6211 232.737 18.2751 233.003 17.8274L237.239 19.4453C236.564 20.6663 235.581 21.6432 234.292 22.3758C233.003 23.0881 231.591 23.4442 230.057 23.4442C227.704 23.4442 225.739 22.6607 224.164 21.0937C222.609 19.5267 221.831 17.5628 221.831 15.2021C221.831 12.8618 222.588 10.9182 224.102 9.37158C225.637 7.80456 227.54 7.02105 229.811 7.02105C232.123 7.02105 234.077 7.81474 235.674 9.40211C237.27 10.9895 238.068 12.9432 238.068 15.2632C238.068 15.7923 238.006 16.3926 237.883 17.0642H226.711Z" fill="white"/>
        <path d="M241.223 22.8947V7.63158H245.827V22.8947H241.223ZM251.167 22.8947V14.4084C251.167 13.5333 250.922 12.8516 250.431 12.3632C249.96 11.8747 249.336 11.6305 248.558 11.6305C247.822 11.6305 247.177 11.9053 246.625 12.4547C246.093 12.9839 245.827 13.6351 245.827 14.4084H244.139C244.139 12.3937 244.701 10.7046 245.827 9.34105C246.973 7.97754 248.395 7.29579 250.093 7.29579C251.75 7.29579 253.111 7.83509 254.175 8.91368C255.239 9.99228 255.771 11.4677 255.771 13.34V22.8947H251.167Z" fill="white"/>
        <path d="M259.581 22.8947V0H264.185V12.9737H265.014L269.433 7.63158H275.357L268.942 15.2632L275.357 22.8947H269.433L265.014 17.6442H264.185V22.8947H259.581Z" fill="white"/>
        <path d="M282.106 12.4547C281.349 13.167 280.97 14.093 280.97 15.2326C280.97 16.3723 281.349 17.3084 282.106 18.0411C282.863 18.7533 283.784 19.1095 284.868 19.1095C285.953 19.1095 286.874 18.7533 287.631 18.0411C288.388 17.3084 288.766 16.3723 288.766 15.2326C288.766 14.093 288.388 13.167 287.631 12.4547C286.874 11.7221 285.953 11.3558 284.868 11.3558C283.784 11.3558 282.863 11.7221 282.106 12.4547ZM278.822 21.1242C277.185 19.5775 276.366 17.6137 276.366 15.2326C276.366 12.8516 277.185 10.8877 278.822 9.34105C280.459 7.79439 282.474 7.02105 284.868 7.02105C287.262 7.02105 289.278 7.79439 290.915 9.34105C292.552 10.8877 293.37 12.8516 293.37 15.2326C293.37 17.6137 292.552 19.5775 290.915 21.1242C289.278 22.6709 287.262 23.4442 284.868 23.4442C282.474 23.4442 280.459 22.6709 278.822 21.1242Z" fill="white"/>
    </symbol>
    <symbol id="elipse" viewBox="0 0 64 64" fill="none">
        <path d="M34.5369 16.1101C41.4525 17.1801 46.8181 22.5468 47.8907 29.4651C47.9395 29.7803 48.0995 30.0676 48.3417 30.275C48.5839 30.4825 48.8923 30.5965 49.2112 30.5964H62.6642C62.8493 30.5961 63.0323 30.5575 63.2016 30.4828C63.371 30.4082 63.523 30.2993 63.6481 30.1629C63.7732 30.0266 63.8686 29.8657 63.9284 29.6906C63.9881 29.5155 64.0109 29.3298 63.9952 29.1455C62.6564 13.6022 50.4011 1.34727 34.8552 0.00581973C34.4898 -0.0281268 34.114 0.098515 33.8374 0.351548C33.7007 0.476708 33.5917 0.628941 33.5171 0.798558C33.4425 0.968175 33.4041 1.15146 33.4042 1.33675V14.7896C33.4042 15.4486 33.8843 16.0097 34.5369 16.1101ZM62.6641 33.2686H49.2111C48.8922 33.2685 48.5838 33.3825 48.3416 33.59C48.0994 33.7975 47.9394 34.0847 47.8905 34.3999C47.5017 36.9117 46.5022 39.3244 45.0042 41.3781C44.6153 41.9092 44.6727 42.6451 45.1373 43.1109L54.6523 52.6283C54.9028 52.8788 55.242 53.0197 55.597 53.0197C55.6153 53.0197 55.6362 53.0197 55.6544 53.0185C56.0302 53.0028 56.3799 52.8293 56.6199 52.5435C60.8763 47.4768 63.4261 41.3141 63.9949 34.7194C64.0263 34.3463 63.901 33.977 63.6478 33.7017C63.5229 33.5652 63.3709 33.4562 63.2015 33.3817C63.0322 33.3071 62.8492 33.2686 62.6641 33.2686Z" fill="#0097EC"/>
        <path d="M43.248 45.0004C42.7808 44.5345 42.0396 44.4757 41.5152 44.8672C38.7437 46.895 35.4763 47.9662 32.068 47.9662C23.2264 47.9662 16.034 40.774 16.034 31.9325C16.034 23.9808 21.7388 17.3262 29.5993 16.11C29.9147 16.0615 30.2023 15.9016 30.41 15.6594C30.6178 15.4172 30.732 15.1086 30.7319 14.7895V1.33675C30.7319 0.962213 30.5753 0.60471 30.2987 0.351552C30.0222 0.0971406 29.662 -0.0295012 29.281 0.00582325C12.8606 1.42156 0 15.446 0 31.9325C0 49.6142 14.3846 64 32.068 64C39.5918 64 46.9093 61.3316 52.6768 56.4854C52.8186 56.3661 52.9343 56.2187 53.0165 56.0525C53.0987 55.8864 53.1456 55.705 53.1545 55.5199C53.1701 55.1467 53.0292 54.7827 52.763 54.5178L43.248 45.0004Z" fill="#0097EC"/>
    </symbol>
    <symbol id="money" viewBox="0 0 70 64" fill="none">
        <path d="M41.7915 64C35.5016 64 29.6982 61.9197 25.0299 58.4106C26.3055 58.57 27.5897 58.6499 28.8752 58.6496C45.8418 58.6496 59.5979 44.8937 59.5979 27.927C59.5979 21.8076 57.8079 16.1064 54.7238 11.3171C63.6362 15.982 69.7186 25.3162 69.7186 36.0728C69.7186 41.8974 67.9346 47.3047 64.8845 51.7804L68.8247 61.7405C69.0138 62.2185 68.9388 62.7227 68.6188 63.125C68.2987 63.5271 67.8243 63.7136 67.3161 63.6367L53.3135 61.5195C49.8009 63.1127 45.8997 64 41.7915 64Z" fill="#0097EC"/>
        <path fill-rule="evenodd" clip-rule="evenodd" d="M56.8023 27.9271C56.8023 12.5034 44.2989 0 28.8752 0C13.4515 0 0.94812 12.5034 0.94812 27.9271C0.94812 33.7516 2.7321 39.159 5.78218 43.6346L1.842 53.5947C1.65288 54.0727 1.7278 54.5769 2.04789 54.9792C2.36798 55.3813 2.84238 55.5678 3.35061 55.4909L17.3532 53.3737C20.8658 54.9669 24.767 55.8542 28.8752 55.8542C44.2989 55.8542 56.8023 43.3508 56.8023 27.9271ZM20.5765 26.8737C22.0232 28.1049 24.1625 28.9206 26.9943 29.3208C28.4718 29.5362 29.5492 29.8286 30.2263 30.198C30.9035 30.5674 31.2421 31.0599 31.2421 31.6755C31.2421 32.3219 30.9651 32.8606 30.411 33.2915C29.857 33.6917 29.1798 33.8917 28.3795 33.8917C27.456 33.8917 26.625 33.6301 25.8862 33.1068C25.1475 32.5528 24.5934 31.814 24.224 30.8906L18.4064 32.6451C19.2375 34.5228 20.5611 36.0156 22.3772 37.1238C23.2476 37.6549 24.171 38.0587 25.1475 38.3352V43.1261H30.5495V38.6239C32.1799 38.3495 33.5805 37.7263 34.7512 36.7544C36.4133 35.4 37.2444 33.6609 37.2444 31.537C37.2444 29.567 36.4749 27.951 34.9358 26.689C33.3968 25.3962 31.1805 24.5497 28.2871 24.1495C25.7015 23.7494 24.4087 22.9953 24.4087 21.8871C24.4087 21.2715 24.6704 20.779 25.1936 20.4096C25.7477 20.0095 26.4403 19.8094 27.2714 19.8094C28.1948 19.8094 29.0259 20.0557 29.7646 20.5482C30.5034 21.0099 31.0574 21.6563 31.4268 22.4874L37.2444 20.7328C36.4133 18.886 35.0897 17.4085 33.2737 16.3004C32.4108 15.7592 31.5027 15.3467 30.5495 15.0626V10.8059H25.1475V14.7649C23.5035 15.0536 22.0876 15.7039 20.8997 16.7159C19.2375 18.101 18.4064 19.871 18.4064 22.0257C18.4064 24.0264 19.1298 25.6424 20.5765 26.8737Z" fill="#0097EC"/>
    </symbol>
    <symbol id="bag" viewBox="0 0 65 64" fill="none">
        <path d="M34.9524 43.4286V36.5714H30.381V43.4286C30.381 44.0348 30.6218 44.6162 31.0504 45.0448C31.4791 45.4735 32.0605 45.7143 32.6667 45.7143C33.2729 45.7143 33.8543 45.4735 34.2829 45.0448C34.7116 44.6162 34.9524 44.0348 34.9524 43.4286Z" fill="#0097EC"/>
        <path d="M39.5238 43.04V43.4286C39.5238 45.2472 38.8014 46.9913 37.5154 48.2773C36.2295 49.5633 34.4853 50.2857 32.6667 50.2857C30.8481 50.2857 29.1039 49.5633 27.818 48.2773C26.532 46.9913 25.8095 45.2472 25.8095 43.4286V43.04L4.16383 36.3886C3.7524 36.2514 3.34097 36.0686 2.9524 35.9086V57.1429C2.9524 58.9615 3.67485 60.7056 4.96081 61.9916C6.24678 63.2776 7.99092 64 9.80954 64H55.5238C57.3425 64 59.0866 63.2776 60.3726 61.9916C61.6585 60.7056 62.381 58.9615 62.381 57.1429V35.9086C61.9924 36.0686 61.6038 36.2514 61.1695 36.3886L39.5238 43.04Z" fill="#0097EC"/>
        <path d="M57.8095 9.14286H46.381V6.85714C46.381 5.03852 45.6585 3.29437 44.3726 2.00841C43.0866 0.722447 41.3425 0 39.5238 0H25.8095C23.9909 0 22.2468 0.722447 20.9608 2.00841C19.6748 3.29437 18.9524 5.03852 18.9524 6.85714V9.14286H7.52383C5.7052 9.14286 3.96106 9.8653 2.6751 11.1513C1.38913 12.4372 0.666687 14.1814 0.666687 16V25.4629C0.670608 26.9271 1.14312 28.3516 2.01506 29.5279C2.88701 30.7042 4.11258 31.5705 5.5124 32L25.8095 38.2629V34.2857C25.8095 33.6795 26.0504 33.0981 26.479 32.6695C26.9077 32.2408 27.489 32 28.0953 32H37.2381C37.8443 32 38.4257 32.2408 38.8544 32.6695C39.283 33.0981 39.5238 33.6795 39.5238 34.2857V38.2629L59.821 32C61.2208 31.5705 62.4464 30.7042 63.3183 29.5279C64.1903 28.3516 64.6628 26.9271 64.6667 25.4629V16C64.6667 14.1814 63.9442 12.4372 62.6583 11.1513C61.3723 9.8653 59.6282 9.14286 57.8095 9.14286ZM23.5238 9.14286V6.85714C23.5238 6.25093 23.7646 5.66955 24.1933 5.2409C24.622 4.81224 25.2033 4.57143 25.8095 4.57143H39.5238C40.13 4.57143 40.7114 4.81224 41.1401 5.2409C41.5687 5.66955 41.8095 6.25093 41.8095 6.85714V9.14286H23.5238Z" fill="#0097EC"/>
    </symbol>
    <symbol id="people" viewBox="0 0 46 64" fill="none">
        <path d="M23 0C14.6155 0 7.79919 6.81634 7.79919 15.2008C7.79919 23.4252 14.2315 30.0815 22.6159 30.3695C22.8719 30.3375 23.128 30.3375 23.32 30.3695H23.544C27.4781 30.2383 31.207 28.5822 33.9422 25.7514C36.6774 22.9206 38.2046 19.1371 38.2007 15.2008C38.2007 6.81634 31.3844 0 23 0ZM39.2568 38.8787C30.3283 32.9264 15.7676 32.9264 6.77514 38.8787C2.71094 41.5989 0.470825 45.2791 0.470825 49.2153C0.470825 53.1515 2.71094 56.7996 6.74314 59.4878C11.2234 62.4959 17.1117 64 23 64C28.8882 64 34.7765 62.4959 39.2568 59.4878C43.289 56.7676 45.5291 53.1195 45.5291 49.1513C45.4971 45.2151 43.289 41.5669 39.2568 38.8787Z" fill="#0097EC"/>
    </symbol>
    <symbol id="human" viewBox="0 0 11 15" fill="none">
        <path d="M5.5 0C3.45312 0 1.78906 1.59758 1.78906 3.56268C1.78906 5.49027 3.35938 7.05035 5.40625 7.11786C5.46875 7.11036 5.53125 7.11036 5.57812 7.11786H5.63281C6.59325 7.08709 7.50357 6.69894 8.17132 6.03548C8.83906 5.37202 9.21188 4.48525 9.21094 3.56268C9.21094 1.59758 7.54687 0 5.5 0ZM9.46875 9.11221C7.28906 7.71714 3.73437 7.71714 1.53906 9.11221C0.546875 9.74974 0 10.6123 0 11.5348C0 12.4574 0.546875 13.3124 1.53125 13.9424C2.625 14.6475 4.0625 15 5.5 15C6.9375 15 8.375 14.6475 9.46875 13.9424C10.4531 13.3049 11 12.4499 11 11.5198C10.9922 10.5973 10.4531 9.74224 9.46875 9.11221Z" fill="white"/>
    </symbol>
    <symbol id="facebook" viewBox="0 0 24 25" fill="none">
        <path d="M21.4286 0.5H2.57143C1.88944 0.5 1.23539 0.770918 0.753154 1.25315C0.270918 1.73539 0 2.38944 0 3.07143L0 21.9286C0 22.6106 0.270918 23.2646 0.753154 23.7468C1.23539 24.2291 1.88944 24.5 2.57143 24.5H9.92411V16.3405H6.54911V12.5H9.92411V9.57286C9.92411 6.24339 11.9063 4.40429 14.9421 4.40429C16.3961 4.40429 17.9164 4.66357 17.9164 4.66357V7.93143H16.2413C14.5907 7.93143 14.0759 8.95571 14.0759 10.0063V12.5H17.7605L17.1712 16.3405H14.0759V24.5H21.4286C22.1106 24.5 22.7646 24.2291 23.2468 23.7468C23.7291 23.2646 24 22.6106 24 21.9286V3.07143C24 2.38944 23.7291 1.73539 23.2468 1.25315C22.7646 0.770918 22.1106 0.5 21.4286 0.5Z" fill="white"/>
    </symbol>
    <symbol id="telegram" viewBox="0 0 24 25" fill="none">
        <path d="M21.9539 2.18161C21.9539 2.18161 24.1741 1.29116 23.989 3.45368C23.9274 4.34414 23.3723 7.46072 22.9406 10.8317L21.4605 20.8175C21.4605 20.8175 21.3372 22.2804 20.2271 22.5348C19.117 22.7892 17.4519 21.6443 17.1435 21.3899C16.8968 21.1991 12.5181 18.3369 10.9764 16.9377C10.5447 16.556 10.0513 15.7928 11.038 14.9023L17.5135 8.54198C18.2536 7.77873 18.9937 5.99783 15.9101 8.16036L7.27606 14.2027C7.27606 14.2027 6.28932 14.8387 4.43917 14.2663L0.430525 12.9942C0.430525 12.9942 -1.04959 12.0402 1.47894 11.0861C7.64609 8.09675 15.2317 5.04378 21.9539 2.18161Z" fill="white"/>
    </symbol>
    <symbol id="instagram" viewBox="0 0 24 25" fill="none">
        <path d="M12 8.0984C9.5712 8.0984 7.5984 10.0712 7.5984 12.5C7.5984 14.9288 9.5712 16.9064 12 16.9064C14.4288 16.9064 16.4064 14.9288 16.4064 12.5C16.4064 10.0712 14.4288 8.0984 12 8.0984Z" fill="white"/>
        <path d="M18.6432 0.5H5.3568C2.4048 0.5 0 2.9048 0 5.8568V19.1432C0 22.1 2.4048 24.5 5.3568 24.5H18.6432C21.6 24.5 24 22.1 24 19.1432V5.8568C24 2.9048 21.6 0.5 18.6432 0.5ZM12 20.276C7.7136 20.276 4.224 16.7864 4.224 12.5C4.224 8.2136 7.7136 4.7288 12 4.7288C16.2864 4.7288 19.776 8.2136 19.776 12.5C19.776 16.7864 16.2864 20.276 12 20.276ZM19.9392 6.14C19.032 6.14 18.2928 5.4056 18.2928 4.4984C18.2928 3.5912 19.032 2.852 19.9392 2.852C20.8464 2.852 21.5856 3.5912 21.5856 4.4984C21.5856 5.4056 20.8464 6.14 19.9392 6.14Z" fill="white"/>
    </symbol>
</svg>